<svg width="14" height="20" fill="currentColor" xmlns="http://www.w3.org/2000/svg"><path fill-rule="evenodd" clip-rule="evenodd" d="M6.406 11.95a4.717 4.717 0 1 1 1.887-.114V9.854l1.039-2.165a.943.943 0 1 0-1.701-.816l-.444.926-.77-1.069a.943.943 0 0 0-1.53 1.102l1.52 2.111v2.008Zm.866 1.93a6.678 6.678 0 0 1-2.092-.27v1.216h3.773V13.61a6.588 6.588 0 0 1-1.433.258.953.953 0 0 1-.248.012ZM8.7 16.712H5.434a1.885 1.885 0 0 0 3.268 0Zm-5.406-1.886V12.94c0-.077.01-.151.026-.222a6.602 6.602 0 1 1 7.492 0 .944.944 0 0 1 .027.222V15.769a3.772 3.772 0 0 1-7.545 0v-.943Z"/></svg>
