<svg width="19" height="13" fill="currentColor" xmlns="http://www.w3.org/2000/svg"><path fill-rule="evenodd" clip-rule="evenodd" d="M16.25 3.686h-.833c-.18.002-.358.022-.533.059a5.835 5.835 0 0 0-10.603 0 2.751 2.751 0 0 0-.534-.059h-.833a2.5 2.5 0 0 0-2.5 2.501v3.334a2.5 2.5 0 0 0 2.5 2.501h.833a2.5 2.5 0 0 0 2.501-2.5V6.186a2.5 2.5 0 0 0-.542-1.534 4.168 4.168 0 0 1 7.752 0 2.501 2.501 0 0 0-.542 1.534v3.334a2.5 2.5 0 0 0 2.501 2.501h.834a2.5 2.5 0 0 0 2.5-2.5V6.186a2.5 2.5 0 0 0-2.5-2.5ZM4.58 9.521c0 .46-.373.834-.834.834h-.833a.834.834 0 0 1-.834-.834V6.187c0-.46.373-.833.834-.833h.833c.46 0 .834.373.834.833v3.334Zm11.671.834c.46 0 .834-.373.834-.834V6.187a.834.834 0 0 0-.834-.833h-.834a.834.834 0 0 0-.833.833v3.334c0 .46.373.834.834.834h.833Z"/></svg>
