<svg width="17" height="19" fill="currentColor" xmlns="http://www.w3.org/2000/svg"><path fill-rule="evenodd" clip-rule="evenodd" d="M9.08 1.31h.067a7.105 7.105 0 0 1 7.105 7.104 1.846 1.846 0 0 1-2.285 1.793L11.32 9.56l-2.256.553c.01.053.015.107.015.163v5.38a2.69 2.69 0 0 1-5.38 0v-.599a.897.897 0 0 1 1.793 0v.598a.897.897 0 0 0 1.794 0v-5.38c0-.055.005-.11.014-.162l-2.256-.553-2.645.648A1.846 1.846 0 0 1 .114 8.414 7.105 7.105 0 0 1 7.22 1.31h.068a.897.897 0 1 1 1.793 0Zm-.897 7.172-3.138-.769-1.325.325-.057.014-1.48.362-.21.052a.053.053 0 0 1-.066-.052 5.295 5.295 0 0 1 .335-1.86A5.314 5.314 0 0 1 7.22 3.103h1.928a5.313 5.313 0 0 1 5.312 5.311c0 .035-.032.06-.066.052l-.21-.052-1.48-.362-.057-.014-1.325-.325-3.138.769Z"/></svg>
