<svg width="20" height="20" fill="none" xmlns="http://www.w3.org/2000/svg"><path opacity=".3" d="M10 3.802 6.474 8.033a.833.833 0 0 1-1.28-1.067l4.166-5c.333-.4.947-.4 1.28 0l4.167 5a.833.833 0 0 1-1.28 1.067L10 3.802Z" fill="#3B85F7"/><path fill-rule="evenodd" clip-rule="evenodd" d="M2.734 7.5h14.532a.833.833 0 0 1 .808 1.035l-1.767 7.071A2.5 2.5 0 0 1 13.88 17.5H6.12a2.5 2.5 0 0 1-2.426-1.894l-1.768-7.07A.833.833 0 0 1 2.734 7.5ZM10 10a.833.833 0 0 0-.833.833v3.334a.833.833 0 0 0 1.666 0v-3.334A.833.833 0 0 0 10 10Zm-4.196.114a.833.833 0 0 0-.59 1.02l.863 3.22a.833.833 0 0 0 1.61-.431l-.863-3.22a.833.833 0 0 0-1.02-.59Zm8.392 0a.833.833 0 0 0-1.02.589l-.863 3.22a.833.833 0 1 0 1.61.431l.862-3.22a.833.833 0 0 0-.589-1.02Z" fill="#3B85F7"/></svg>
