<svg width="20" height="18" fill="currentColor" xmlns="http://www.w3.org/2000/svg"><path fill-rule="evenodd" clip-rule="evenodd" d="M5.772 3.61h13.113a1.049 1.049 0 0 1 1.058 1.154l-.874 8.393c-.05.53-.49.937-1.023.944H6.978a1.04 1.04 0 0 1-1.023-.874l-1.748-8.55-.673-2.815h-1.95a.874.874 0 0 1 0-1.749h2.492c.476.009.887.335 1.005.796l.69 2.701Zm1.784 8.743h9.861l.7-6.994H6.157l1.399 6.994Z"/><path d="M9.023 17.598a1.311 1.311 0 1 0 0-2.622 1.311 1.311 0 0 0 0 2.622ZM15.143 17.598a1.311 1.311 0 1 0 0-2.622 1.311 1.311 0 0 0 0 2.622Z"/></svg>
