<svg width="29" height="28" fill="none" xmlns="http://www.w3.org/2000/svg"><rect x=".471" width="28" height="28" rx="3" fill="url(#a)"/><path d="M12.251 13.672a1.89 1.89 0 1 1 3.78-.001 1.89 1.89 0 0 1-3.78 0Zm-1.022 0a2.912 2.912 0 1 0 5.824 0 2.912 2.912 0 0 0-5.824 0Zm5.258-3.028a.68.68 0 1 0 .68-.68.68.68 0 0 0-.68.68Zm-4.637 7.644c-.553-.025-.853-.117-1.053-.195a1.762 1.762 0 0 1-.652-.424 1.75 1.75 0 0 1-.424-.652c-.078-.2-.17-.5-.195-1.053-.028-.598-.033-.778-.033-2.292 0-1.515.006-1.694.033-2.292.025-.553.118-.853.195-1.054.103-.264.226-.453.424-.652.198-.199.387-.322.652-.424.2-.078.5-.17 1.053-.195.598-.028.777-.033 2.29-.033 1.514 0 1.694.006 2.292.033.553.025.853.118 1.053.195.265.102.454.226.652.424.199.198.321.388.424.652.078.2.17.5.195 1.054.028.598.034.777.034 2.292 0 1.514-.006 1.694-.034 2.292-.025.553-.117.853-.195 1.053a1.757 1.757 0 0 1-.424.652 1.762 1.762 0 0 1-.652.424c-.2.078-.5.17-1.053.195-.597.028-.777.033-2.291.033-1.514 0-1.693-.005-2.29-.033Zm-.047-10.254c-.604.028-1.016.124-1.376.264a2.781 2.781 0 0 0-1.005.654c-.315.315-.509.632-.654 1.005-.14.36-.235.773-.263 1.376-.028.605-.034.799-.034 2.339s.006 1.733.034 2.338c.028.604.123 1.016.263 1.377.145.373.339.69.654 1.004.316.316.632.51 1.005.655.36.14.773.236 1.376.263.605.028.798.034 2.338.034s1.733-.006 2.337-.034c.604-.027 1.016-.123 1.377-.263a2.787 2.787 0 0 0 1.004-.655c.316-.315.509-.631.654-1.004.14-.36.236-.773.263-1.377.028-.605.034-.798.034-2.338s-.006-1.734-.034-2.339c-.027-.604-.123-1.016-.263-1.376a2.788 2.788 0 0 0-.654-1.005 2.774 2.774 0 0 0-1.004-.654c-.36-.14-.773-.237-1.376-.264C15.874 8.007 15.68 8 14.14 8s-1.733.006-2.338.034Z" fill="#fff"/><defs><linearGradient id="a" x1="27.933" y1="28" x2="-.067" y2="0" gradientUnits="userSpaceOnUse"><stop stop-color="#FBE18A"/><stop offset=".21" stop-color="#FCBB45"/><stop offset=".38" stop-color="#F75274"/><stop offset=".52" stop-color="#D53692"/><stop offset=".74" stop-color="#8F39CE"/><stop offset="1" stop-color="#5B4FE9"/></linearGradient></defs></svg>
