<svg width="29" height="28" fill="none" xmlns="http://www.w3.org/2000/svg"><rect x=".235" width="28" height="28" rx="3" fill="#34AADF"/><rect x="2.902" y="2.667" width="22.667" height="22.667" rx="11.333" fill="#34AADF"/><path d="M9.209 13.598s4.611-1.942 6.21-2.626c.613-.273 2.693-1.149 2.693-1.149s.96-.383.88.547c-.027.384-.24 1.724-.454 3.174-.32 2.051-.666 4.295-.666 4.295s-.054.629-.507.738c-.453.11-1.2-.383-1.332-.492-.107-.082-2-1.313-2.693-1.915-.186-.164-.4-.492.027-.875.96-.903 2.106-2.025 2.799-2.736.32-.328.64-1.094-.693-.164-1.893 1.34-3.759 2.599-3.759 2.599s-.426.273-1.226.027c-.8-.246-1.733-.574-1.733-.574s-.64-.41.454-.848Z" fill="#fff"/></svg>
