<svg width="28" height="28" fill="none" xmlns="http://www.w3.org/2000/svg"><rect width="28" height="28" rx="3" fill="#2787F5"/><rect x="2.667" y="2.667" width="22.667" height="22.667" rx="11.333" fill="#2787F5"/><path fill-rule="evenodd" clip-rule="evenodd" d="M19.692 11.2c.08-.252 0-.438-.385-.438h-1.271c-.324 0-.473.16-.554.337 0 0-.646 1.479-1.563 2.44-.296.278-.43.366-.592.366-.081 0-.198-.088-.198-.341V11.2c0-.303-.094-.438-.364-.438h-1.998c-.202 0-.324.14-.324.274 0 .288.458.354.506 1.163v1.757c0 .385-.075.455-.236.455-.431 0-1.48-1.486-2.102-3.185-.122-.33-.244-.464-.57-.464H8.77c-.363 0-.436.16-.436.337 0 .316.431 1.883 2.008 3.956 1.05 1.416 2.531 2.183 3.878 2.183.809 0 .909-.17.909-.464v-1.07c0-.34.076-.409.332-.409.189 0 .512.089 1.267.771.862.81 1.004 1.172 1.49 1.172h1.271c.363 0 .545-.17.44-.507-.114-.335-.526-.821-1.072-1.398-.297-.328-.741-.682-.876-.86-.189-.227-.135-.328 0-.53 0 0 1.55-2.047 1.71-2.743Z" fill="#fff"/></svg>
