<svg width="91" height="20" fill="none" xmlns="http://www.w3.org/2000/svg"><g clip-path="url(#a)"><path d="M18.744 12.05A9.394 9.394 0 1 1 .516 7.505C1.77 2.47 6.869-.593 11.902.662 16.936 1.917 20 7.016 18.744 12.05Z" fill="#F7931A"/><path d="M13.773 8.438c.187-1.25-.765-1.922-2.067-2.37l.422-1.694-1.03-.257-.412 1.649c-.27-.068-.55-.131-.826-.194l.414-1.66-1.03-.257-.423 1.693a34.518 34.518 0 0 1-.658-.155l.001-.005-1.422-.355-.274 1.101s.765.175.749.186c.417.104.493.38.48.6l-.48 1.93a.853.853 0 0 1 .106.034l-.108-.027-.675 2.703c-.05.127-.18.317-.472.245.01.014-.75-.188-.75-.188l-.511 1.18 1.341.335c.25.063.495.128.735.19l-.426 1.713 1.03.257.422-1.695c.281.076.554.147.822.213l-.421 1.687 1.03.257.427-1.71c1.758.333 3.08.199 3.637-1.391.448-1.28-.023-2.02-.948-2.5.674-.156 1.181-.6 1.317-1.515Zm-2.356 3.304c-.318 1.28-2.474.588-3.173.414l.566-2.27c.7.175 2.94.52 2.607 1.856Zm.32-3.322c-.292 1.165-2.086.573-2.668.428l.514-2.059c.582.145 2.456.416 2.153 1.631Z" fill="#fff"/><path d="M27.772 6.066c.762 0 1.42.136 1.973.404.556.271 1.015.636 1.383 1.095.363.46.633 1 .807 1.617.174.62.26 1.285.26 1.998 0 1.094-.2 2.129-.605 3.104a8.05 8.05 0 0 1-1.653 2.545 7.774 7.774 0 0 1-2.474 1.71c-.95.421-1.982.631-3.09.631-.143 0-.395-.004-.75-.011a10.962 10.962 0 0 1-1.224-.106c-.46-.064-.948-.16-1.463-.287a7.335 7.335 0 0 1-1.463-.523L23.587.954l3.686-.57-1.474 6.134c.316-.142.633-.252.95-.332.318-.08.659-.12 1.023-.12Zm-3.091 10.18c.554 0 1.077-.136 1.569-.404s.918-.63 1.274-1.082a5.46 5.46 0 0 0 .843-1.534c.206-.571.31-1.166.31-1.786 0-.76-.127-1.354-.38-1.783-.254-.427-.723-.642-1.404-.642-.223 0-.51.042-.867.119-.358.08-.678.248-.965.5l-1.568 6.516c.094.016.178.032.25.047.07.016.146.028.223.036.082.009.175.014.287.014h.427ZM36.016 18.84h-3.52L35.47 6.33h3.544l-2.997 12.508Zm1.713-14.033c-.491 0-.937-.146-1.332-.44-.399-.29-.596-.739-.596-1.343 0-.333.068-.645.201-.939A2.511 2.511 0 0 1 37.311.812c.294-.126.607-.19.94-.19.492 0 .935.147 1.332.44.395.294.594.743.594 1.344 0 .333-.068.646-.203.94a2.477 2.477 0 0 1-1.306 1.272c-.295.128-.607.189-.94.189ZM42.097 3.215l3.687-.572-.905 3.687h3.948l-.713 2.901H44.19l-1.046 4.375a4.95 4.95 0 0 0-.166 1.022c-.017.318.023.591.118.821.095.23.265.409.511.534.246.128.597.192 1.058.192.38 0 .75-.036 1.108-.108.355-.07.716-.168 1.08-.296l.263 2.712c-.476.174-.99.324-1.546.45-.556.128-1.214.19-1.974.19-1.094 0-1.942-.162-2.546-.486-.603-.325-1.03-.77-1.284-1.333-.252-.561-.364-1.208-.333-1.937.032-.73.143-1.499.333-2.307l2.331-9.845ZM48.674 13.845c0-1.078.174-2.094.523-3.045a7.49 7.49 0 0 1 1.5-2.499 7.02 7.02 0 0 1 2.367-1.688c.925-.41 1.96-.618 3.102-.618.714 0 1.352.068 1.914.203a7.75 7.75 0 0 1 1.535.534L58.4 9.492a11.371 11.371 0 0 0-.987-.344c-.34-.105-.756-.155-1.248-.155-1.175 0-2.104.405-2.795 1.212-.689.808-1.035 1.895-1.035 3.259 0 .808.174 1.462.524 1.962.348.5.992.749 1.926.749.46 0 .906-.048 1.332-.142.43-.095.808-.215 1.142-.357l.263 2.83c-.445.172-.936.328-1.475.465-.54.132-1.182.2-1.927.2-.983 0-1.816-.144-2.497-.427-.681-.288-1.244-.67-1.688-1.154a4.347 4.347 0 0 1-.963-1.701 6.978 6.978 0 0 1-.3-2.044ZM64.31 19.171c-.84 0-1.57-.128-2.189-.381a4.04 4.04 0 0 1-1.533-1.07 4.622 4.622 0 0 1-.915-1.629c-.208-.626-.308-1.32-.308-2.079 0-.953.153-1.905.462-2.855a8.086 8.086 0 0 1 1.37-2.568 7.308 7.308 0 0 1 2.21-1.87c.87-.481 1.87-.724 2.994-.724.825 0 1.551.128 2.179.382a4.07 4.07 0 0 1 1.545 1.07c.403.46.708 1.002.914 1.63.207.624.31 1.32.31 2.08 0 .95-.152 1.902-.451 2.855a8.245 8.245 0 0 1-1.332 2.568 6.981 6.981 0 0 1-2.2 1.865c-.879.484-1.898.726-3.056.726Zm1.76-10.178c-.523 0-.984.151-1.379.45-.396.303-.73.684-.998 1.143a5.64 5.64 0 0 0-.608 1.51 6.509 6.509 0 0 0-.201 1.557c0 .794.128 1.412.38 1.857.255.443.713.665 1.38.665.523 0 .982-.15 1.38-.453.394-.3.727-.68.997-1.14.27-.46.473-.964.609-1.51.133-.547.2-1.067.2-1.558 0-.792-.127-1.412-.381-1.856-.254-.443-.714-.665-1.38-.665ZM75.183 18.84H71.66L74.633 6.33h3.546l-2.996 12.508Zm1.71-14.033a2.18 2.18 0 0 1-1.33-.44c-.397-.29-.596-.739-.596-1.343 0-.333.068-.645.203-.939.134-.293.313-.546.535-.761.221-.213.481-.384.773-.512.293-.126.606-.19.938-.19.492 0 .937.147 1.333.44.396.294.596.743.596 1.344 0 .333-.072.646-.204.94a2.466 2.466 0 0 1-.534.761c-.223.214-.48.384-.772.51-.295.13-.608.19-.942.19ZM80.715 6.9c.267-.078.566-.172.89-.275a13.125 13.125 0 0 1 2.45-.499 15.23 15.23 0 0 1 1.7-.083c1.856 0 3.136.54 3.842 1.618s.828 2.553.37 4.423l-1.619 6.754h-3.543l1.57-6.612c.095-.412.17-.811.226-1.201.056-.387.053-.728-.013-1.022a1.224 1.224 0 0 0-.439-.715c-.232-.181-.583-.273-1.059-.273-.459 0-.926.05-1.402.145l-2.308 9.678h-3.544L80.716 6.9Z" fill="#4D4D4D"/></g><defs><clipPath id="a"><path fill="#fff" transform="translate(.234 .38)" d="M0 0h90.003v18.794H0z"/></clipPath></defs></svg>
