<svg width="101" height="26" fill="none" xmlns="http://www.w3.org/2000/svg"><path d="M29.157 14.665h.2c-.01-2.06-1.56-4.006-3.765-4.006-2.208 0-3.747 1.966-3.747 4.025 0 2.06 1.549 4.024 3.747 4.024 1.253 0 2.56-.549 3.226-1.698a.487.487 0 0 0 .076-.259.499.499 0 0 0-.511-.508h-.003a.53.53 0 0 0-.427.247c-.572.822-1.324 1.207-2.361 1.207-1.405 0-2.448-1.153-2.679-2.508h5.91l.334-.524Zm-3.565-2.995c1.408 0 2.473 1.158 2.682 2.508h-5.361c.231-1.354 1.273-2.508 2.679-2.508ZM36.627 10.807a.515.515 0 0 1 .5.5.498.498 0 0 1-.508.512h-1.446v6.274a.508.508 0 0 1-.504.504h-.007a.515.515 0 0 1-.5-.5V11.82H32.78a.495.495 0 0 1-.508-.51.508.508 0 0 1 .504-.502H34.162V8.646a.528.528 0 0 1 .447-.522h.004a.503.503 0 0 1 .57.505m1.444 2.178-1.645-2.18m1.645 2.18h-1.445m1.445 0h-1.445m0-2.178v.002l-.2-.003m.2.001v-.001h-.2m.2.001v2.178m-.2-2.18v2.18h.2M40.44 18.062a.501.501 0 0 0 .57.506l.004-.001a.529.529 0 0 0 .447-.521V15.11a.963.963 0 0 0-.003-.063l-.007-.08a9.804 9.804 0 0 1-.006-.082l-.002-.03V14.828c-.054-.815.117-1.603.511-2.181.39-.57 1.004-.949 1.882-.949a1.81 1.81 0 0 1 1.503.743c.34.454.519 1.069.519 1.696v3.915a.499.499 0 0 0 .511.508.515.515 0 0 0 .5-.5v-3.923c0-1.742-1.078-3.46-3.043-3.46-.954 0-1.792.447-2.374 1.142m-1.011 6.243v-.002l.2.004h-.2v-.002Zm0 0V5.181a.508.508 0 0 1 .503-.504h.008a.515.515 0 0 1 .5.5v6.642m0 0c-.07.084-.137.172-.2.264v-6.9a.315.315 0 0 0-.306-.306.308.308 0 0 0-.305.306v12.88a.302.302 0 0 0 .342.306.329.329 0 0 0 .278-.324V15.11a2.59 2.59 0 0 0-.007-.106c-.005-.064-.011-.137-.011-.163-.111-1.694.703-3.343 2.593-3.343 1.472 0 2.222 1.315 2.222 2.64v3.917a.3.3 0 0 0 .187.284.298.298 0 0 0 .119.021.315.315 0 0 0 .305-.305v-3.918c0-1.676-1.028-3.26-2.843-3.26-.974 0-1.825.5-2.374 1.269v-.327ZM57.364 14.99v.2h-5.91c.231 1.354 1.273 2.507 2.679 2.507 1.037 0 1.789-.385 2.36-1.207a.53.53 0 0 1 .428-.247h.002a.494.494 0 0 1 .477.314.497.497 0 0 1 .035.194.487.487 0 0 1-.076.26c-.666 1.148-1.973 1.697-3.226 1.697-2.198 0-3.747-1.965-3.747-4.024 0-2.06 1.54-4.025 3.747-4.025 2.186 0 3.755 1.944 3.765 4.005l-.2.001a.33.33 0 0 1-.334.324Zm0 0h-5.938 5.938Zm-3.24-3.32c1.408 0 2.472 1.158 2.682 2.508h-5.361c.23-1.354 1.273-2.508 2.678-2.508ZM62.537 18.017a.53.53 0 0 1-.447.522h-.004a.501.501 0 0 1-.57-.505m1.021-.017-.2-5.7a4.01 4.01 0 0 1 .2-.256m0 5.956v-2.935c0-.827.197-1.58.598-2.154.396-.569 1-.974 1.846-1.101a.512.512 0 0 0 .464-.54.464.464 0 0 0-.184-.36.575.575 0 0 0-.35-.12c-.924 0-1.793.566-2.374 1.254m0 5.956v-5.956m-1.02 5.973v-.002l.2.004m-.2-.002v.002h.2m-.2-.002v-6.693a.529.529 0 0 1 .447-.522h.004a.503.503 0 0 1 .57.505m-.821 6.712a.303.303 0 0 0 .343.306l-.343-.306Zm.82-6.712v.002l-.2-.004h.2v.002Zm0 0v.737M75.005 14.99v.2h-5.91c.23 1.354 1.273 2.507 2.678 2.507 1.038 0 1.79-.385 2.361-1.207a.53.53 0 0 1 .427-.247h.003a.494.494 0 0 1 .476.314.497.497 0 0 1 .035.194.487.487 0 0 1-.075.26c-.666 1.148-1.973 1.697-3.227 1.697-2.197 0-3.746-1.965-3.746-4.024 0-2.06 1.54-4.025 3.746-4.025s3.756 1.945 3.765 4.005l-.2.001a.33.33 0 0 1-.333.324Zm0 0h-5.938 5.938Zm-3.232-3.32c1.409 0 2.473 1.158 2.683 2.508h-5.361c.23-1.354 1.273-2.508 2.678-2.508ZM85.466 18.097a.515.515 0 0 1-.5.5.496.496 0 0 1-.51-.508v-.575c-.558.737-1.367 1.24-2.357 1.24-.976 0-1.741-.426-2.257-1.076-.513-.646-.776-1.507-.776-2.383V11.357a.509.509 0 0 1 .503-.503h.008a.515.515 0 0 1 .5.5v3.941c0 .627.178 1.243.519 1.696.336.448.834.743 1.503.743.484 0 .863-.113 1.163-.304.3-.192.534-.47.711-.821.36-.708.482-1.688.482-2.75v-2.512a.51.51 0 0 1 .686-.472l.007.003.008.004a.536.536 0 0 1 .31.487v6.728Zm0 0V11.37v6.728ZM101.012 18.051a.51.51 0 0 1-.499.5.496.496 0 0 1-.512-.508V14.11c0-.628-.178-1.238-.518-1.686-.336-.443-.834-.735-1.504-.735-.84 0-1.42.443-1.8 1.085-.385.649-.556 1.49-.556 2.234V18.05a.515.515 0 0 1-.5.5.496.496 0 0 1-.511-.508V14.11c0-.628-.178-1.238-.519-1.686-.336-.443-.834-.735-1.504-.735-.874 0-1.47.34-1.847.894-.385.565-.559 1.376-.527 2.335v.007m10.797 3.126-10.997-6.729.2.004v-.002a.502.502 0 0 0-.569-.505h-.005a.529.529 0 0 0-.446.521v6.713m11.817-.002V14.11c0-1.735-1.079-3.432-3.033-3.432-1.21 0-2.176.684-2.751 1.678l5.784 5.695Zm-10.797-3.126Zm0 0v.005l.002.015v.01l.004.04a.49.49 0 0 1-.006.12v2.921a.528.528 0 0 1-.447.522h-.005a.501.501 0 0 1-.568-.505m0 0v-.002l.2.004h-.2v-.002Z" fill="#3B3B3B" stroke="#3B3B3B" stroke-width=".4"/><path opacity=".6" d="m8.489 9.517-7.686 3.49 7.686 4.547 7.695-4.546-7.695-3.491Z" fill="#000"/><path opacity=".45" d="m.803 13.008 7.686 4.546V.247L.803 13.007Z" fill="#000"/><path opacity=".8" d="M8.488.247v17.307l7.695-4.546L8.488.247Z" fill="#000"/><path opacity=".45" d="m.803 14.47 7.686 10.835v-6.297L.803 14.471Z" fill="#000"/><path opacity=".8" d="M8.488 19.008v6.297l7.695-10.834-7.695 4.537Z" fill="#000"/></svg>
