<svg width="75" height="26" fill="none" xmlns="http://www.w3.org/2000/svg"><path fill-rule="evenodd" clip-rule="evenodd" d="m10.901 5.836-1.965 7.349-1.556.612-.561 2.093 1.582-.536-1.047 4.338 11.33.025.689-2.781h-6.89l.893-3.343 1.863-.792.536-2.04-1.812.611 1.43-5.46-4.492-.076Zm2.17-5.588a12.537 12.537 0 0 1 12.528 12.528 12.537 12.537 0 0 1-12.529 12.53A12.537 12.537 0 0 1 .541 12.775C.566 5.861 6.155.246 13.071.246v.002Z" fill="#B8B9BB"/><path fill-rule="evenodd" clip-rule="evenodd" d="M34.694 8.083a.842.842 0 0 1-.838.839.842.842 0 0 1-.84-.84.842.842 0 0 1 .84-.838c.47.017.838.386.838.839Zm32.006.024a.842.842 0 0 1-.839.84.842.842 0 0 1-.839-.84.842.842 0 0 1 .84-.839.842.842 0 0 1 .838.84ZM30.232 6.791h1.107v11.792h-1.107V6.791Zm9.327 4.16-.017 1.007-1.577.017v6.618h-1.107v-6.626h-1.341v-1.04h1.341V8.073h1.107v2.852h1.593v.025Zm3.405-.033c1.091-.218 2.281-.077 3.187.587 1.174.839 1.644 2.398 1.46 3.773h-6.46c.1.721.453 1.408 1.056 1.837 1.191.89 3.104.654 3.942-.587l.15-.15c.37.05.722.15 1.075.217a3.552 3.552 0 0 1-1.837 1.812c-.99.429-2.108.46-3.12.084a3.7 3.7 0 0 1-2.097-2.046 4.519 4.519 0 0 1 .1-3.556c.47-1.024 1.442-1.76 2.525-1.98l.02.009Zm-1.023 1.76c-.436.42-.689 1.007-.788 1.594h5.357c-.076-.972-.737-1.912-1.694-2.215-.972-.335-2.147-.1-2.869.613l-.006.008Zm7.6-.586c1.443-1.594 4.21-1.71 5.771-.235l-.788.788c-1.09-.957-2.852-.957-3.942-.017-1.301 1.107-1.224 3.406.134 4.429 1.09.856 2.768.805 3.808-.134l.788.771c-1.477 1.342-3.992 1.393-5.468.068-1.577-1.409-1.711-4.11-.302-5.67Zm19.927.076c.419-.889 1.492-1.358 2.515-1.358.47 0 .94.076 1.325.268.771.335 1.207.99 1.425 1.745.134.436.184.905.184 1.358L74.9 18.61h-1.09v-4.361c0-.655-.134-1.359-.588-1.837-.453-.453-1.157-.57-1.76-.437-.704.1-1.375.521-1.71 1.175a2.852 2.852 0 0 0-.286 1.291v4.177H68.36v-7.633l1.107.017.002 1.166ZM58.95 10.901c1.09-.201 2.265-.034 3.187.587.872.553 1.46 1.492 1.627 2.5.168 1.056 0 2.181-.612 3.061-.704 1.056-1.98 1.695-3.255 1.678-1.073.05-2.163-.352-2.918-1.124-1.275-1.224-1.477-3.305-.654-4.83.52-.99 1.526-1.678 2.617-1.88l.008.008Zm.1 1.107a2.71 2.71 0 0 0-1.946 1.71c-.436 1.191-.068 2.668.99 3.389 1.24.905 3.187.67 4.093-.587a3.045 3.045 0 0 0 .2-3.17c-.611-1.175-2.096-1.678-3.336-1.342h-.002Zm-25.748 6.585v-7.616l1.056-.033.017 7.649h-1.073Zm33.095 0h-1.075l.017-7.65h1.056l.002 7.65Z" fill="#626264"/></svg>
