<svg width="47" height="35" fill="none" xmlns="http://www.w3.org/2000/svg"><g clip-path="url(#a)"><path d="M9.124 34.588v-2.286c0-.875-.541-1.448-1.471-1.448-.465 0-.97.151-1.318.648-.271-.417-.66-.648-1.242-.648-.388 0-.776.116-1.083.533v-.457h-.813v3.658h.813v-2.02c0-.648.347-.955.89-.955.54 0 .812.342.812.955v2.02h.812v-2.02c0-.648.388-.955.89-.955.541 0 .812.342.812.955v2.02h.898Zm12.053-3.658h-1.318v-1.106h-.813v1.106h-.735v.723h.735v1.679c0 .839.348 1.332 1.278 1.332.347 0 .735-.116 1.006-.267l-.234-.688a1.316 1.316 0 0 1-.7.191c-.388 0-.542-.23-.542-.608v-1.639h1.318v-.723h.005Zm6.897-.08c-.465 0-.776.23-.97.532v-.457h-.813v3.659h.813v-2.06c0-.609.27-.955.776-.955.154 0 .348.04.506.076l.235-.764c-.163-.031-.393-.031-.547-.031Zm-10.423.382c-.388-.267-.93-.382-1.512-.382-.93 0-1.548.457-1.548 1.18 0 .61.465.955 1.277 1.066l.388.04c.425.076.66.191.66.382 0 .267-.312.457-.854.457-.541 0-.97-.19-1.24-.381l-.39.608c.425.306 1.008.457 1.59.457 1.083 0 1.706-.497 1.706-1.18 0-.649-.505-.99-1.277-1.106l-.389-.04c-.347-.04-.618-.116-.618-.342 0-.267.27-.418.7-.418.465 0 .93.191 1.164.307l.343-.648Zm21.618-.382c-.465 0-.776.23-.97.532v-.457h-.813v3.659h.813v-2.06c0-.609.27-.955.776-.955.154 0 .348.04.506.076l.235-.755c-.158-.04-.389-.04-.547-.04Zm-10.382 1.909c0 1.105.776 1.905 1.977 1.905.542 0 .93-.116 1.318-.418l-.388-.648c-.311.231-.618.342-.97.342-.66 0-1.125-.457-1.125-1.181 0-.688.465-1.146 1.124-1.181.348 0 .66.115.971.342l.388-.649c-.388-.306-.776-.417-1.318-.417-1.2-.004-1.977.8-1.977 1.905Zm7.516 0v-1.83h-.813v.458c-.27-.342-.659-.533-1.164-.533-1.047 0-1.86.8-1.86 1.905s.813 1.905 1.86 1.905c.541 0 .93-.191 1.164-.533v.457h.813V32.76Zm-2.984 0c0-.648.425-1.181 1.124-1.181.66 0 1.124.497 1.124 1.181 0 .648-.465 1.181-1.124 1.181-.695-.04-1.124-.537-1.124-1.181Zm-9.723-1.91c-1.084 0-1.86.764-1.86 1.905 0 1.146.776 1.905 1.9 1.905.542 0 1.084-.15 1.513-.497l-.389-.573c-.311.231-.7.382-1.083.382-.506 0-1.007-.23-1.124-.875h2.75v-.306c.035-1.177-.665-1.94-1.707-1.94Zm0 .689c.505 0 .853.306.93.875h-1.937c.077-.493.424-.875 1.007-.875Zm20.187 1.221v-3.277h-.813v1.905c-.27-.342-.659-.533-1.164-.533-1.048 0-1.86.8-1.86 1.905s.812 1.905 1.86 1.905c.541 0 .93-.191 1.164-.533v.457h.813V32.76Zm-2.984 0c0-.648.424-1.181 1.124-1.181.66 0 1.124.497 1.124 1.181 0 .648-.465 1.181-1.124 1.181-.7-.04-1.124-.537-1.124-1.181Zm-27.202 0v-1.83h-.813v.458c-.27-.342-.659-.533-1.164-.533-1.047 0-1.86.8-1.86 1.905s.813 1.905 1.86 1.905c.542 0 .93-.191 1.164-.533v.457h.813V32.76Zm-3.02 0c0-.648.424-1.181 1.124-1.181.66 0 1.124.497 1.124 1.181 0 .648-.465 1.181-1.124 1.181-.7-.04-1.124-.537-1.124-1.181Z" fill="#000"/><path d="M29.587 3.144H17.381v21.57h12.206V3.143Z" fill="#FF5A00"/><path d="M18.193 13.928c0-4.382 2.095-8.271 5.309-10.784A14.02 14.02 0 0 0 14.898.209C7.188.209.949 6.345.949 13.929c0 7.583 6.239 13.72 13.949 13.72a14.02 14.02 0 0 0 8.604-2.936 13.612 13.612 0 0 1-5.309-10.785Z" fill="#EB001B"/><path d="M46.054 13.928c0 7.584-6.238 13.72-13.948 13.72a14.02 14.02 0 0 1-8.604-2.934c3.255-2.518 5.309-6.403 5.309-10.785 0-4.383-2.095-8.272-5.309-10.785a13.997 13.997 0 0 1 8.6-2.935c7.714 0 13.952 6.176 13.952 13.72Z" fill="#F79E1B"/></g><defs><clipPath id="a"><path fill="#fff" transform="translate(.95 .209)" d="M0 0h45.105v34.455H0z"/></clipPath></defs></svg>
