<svg width="71" height="20" fill="none" xmlns="http://www.w3.org/2000/svg"><path fill-rule="evenodd" clip-rule="evenodd" d="M7.154.803c.62-.004 2.465-.171 3.246 2.48.526 1.785 1.364 4.71 2.514 8.773h.469c1.234-4.284 2.08-7.209 2.542-8.774.79-2.678 2.763-2.48 3.552-2.48h6.09v19.045H19.36V8.624h-.416l-3.46 11.223h-4.67L7.354 8.615h-.417v11.232H.73V.803h6.424Zm27.326 0v11.231h.495l4.21-9.235C40 .96 41.742.803 41.742.803h6.006v19.044h-6.337V8.615h-.495l-4.126 9.236c-.817 1.83-2.64 1.996-2.64 1.996h-6.007V.803h6.336Zm35.171 9.05c-.884 2.518-3.66 4.32-6.732 4.32h-6.646v5.674h-6.026V9.853h19.404Z" fill="#0F754E"/><path fill-rule="evenodd" clip-rule="evenodd" d="M63.21.803H49.931c.316 4.24 3.948 7.87 7.708 7.87h12.43c.718-3.525-1.752-7.87-6.86-7.87Z" fill="url(#a)"/><defs><linearGradient id="a" x1="70.192" y1="5.753" x2="49.932" y2="5.753" gradientUnits="userSpaceOnUse"><stop stop-color="#1F5CD7"/><stop offset="1" stop-color="#02AEFF"/></linearGradient></defs></svg>
