<svg width="79" height="32" fill="none" xmlns="http://www.w3.org/2000/svg"><path d="M26.19 21.186a.535.535 0 0 1-.156.392.558.558 0 0 1-.956-.392v-10.05a.557.557 0 0 1 .156-.392.543.543 0 0 1 .39-.156h2.848a3.633 3.633 0 0 1 1.853.47c.541.298.986.745 1.284 1.287a4.088 4.088 0 0 1 0 3.74c-.3.537-.745.979-1.284 1.272a3.705 3.705 0 0 1-1.853.458H26.19v3.371Zm2.294-4.451c.452.009.9-.1 1.299-.314.372-.213.678-.524.885-.9.223-.398.336-.848.328-1.304a2.615 2.615 0 0 0-.328-1.32 2.286 2.286 0 0 0-.881-.916 2.562 2.562 0 0 0-1.3-.329H26.19v5.09l2.294-.007Zm5.403-2.248a.544.544 0 0 1 .16-.391.53.53 0 0 1 .39-.16.487.487 0 0 1 .39.16.536.536 0 0 1 .16.391v6.7a.538.538 0 0 1-.16.39.488.488 0 0 1-.39.161.546.546 0 0 1-.55-.552v-6.699Zm.558-3.606a.779.779 0 0 1 .542.216.724.724 0 0 1 .226.556.785.785 0 0 1-1.08.725.751.751 0 0 1-.417-.432.785.785 0 0 1-.052-.301.727.727 0 0 1 .227-.556c.15-.14.35-.214.554-.208Zm6.881 2.976c.706-.01 1.4.174 2.01.532a3.655 3.655 0 0 1 1.423 1.43 4.01 4.01 0 0 1 .53 2.031v3.368a.515.515 0 0 1-.16.391.535.535 0 0 1-.39.16.56.56 0 0 1-.39-.144.533.533 0 0 1-.155-.392v-.873a3.714 3.714 0 0 1-1.268 1.089 3.777 3.777 0 0 1-1.697.391 3.703 3.703 0 0 1-1.948-.506 3.721 3.721 0 0 1-1.4-1.451 4.32 4.32 0 0 1 0-4.065 3.834 3.834 0 0 1 1.428-1.433 3.89 3.89 0 0 1 2.017-.528Zm0 6.973a2.825 2.825 0 0 0 1.467-.391 2.736 2.736 0 0 0 1.026-1.058c.261-.468.396-.997.39-1.534a2.989 2.989 0 0 0-.39-1.516 2.736 2.736 0 0 0-1.026-1.076 2.758 2.758 0 0 0-1.467-.392 2.806 2.806 0 0 0-2.52 1.468c-.259.463-.393.985-.39 1.516a3.142 3.142 0 0 0 .39 1.534 2.837 2.837 0 0 0 2.52 1.45Zm8.79-6.973c.564-.014 1.123.1 1.638.333.444.193.831.497 1.123.885.068.096.107.21.114.328a.435.435 0 0 1-.227.392.459.459 0 0 1-.269.07.658.658 0 0 1-.5-.211 2.394 2.394 0 0 0-1.907-.783 2.16 2.16 0 0 0-1.256.329.938.938 0 0 0-.468.802.97.97 0 0 0 .44.83 4.222 4.222 0 0 0 1.561.486c.79.079 1.543.371 2.18.846a1.813 1.813 0 0 1 .656 1.429c.007.424-.13.839-.39 1.174a2.498 2.498 0 0 1-1.077.78 4.139 4.139 0 0 1-1.583.285 4.747 4.747 0 0 1-1.694-.301 3.29 3.29 0 0 1-1.31-.842.518.518 0 0 1-.145-.329.549.549 0 0 1 .227-.43.595.595 0 0 1 .359-.13.533.533 0 0 1 .413.2c.242.278.551.49.897.615.401.148.826.22 1.253.215a2.641 2.641 0 0 0 1.498-.345 1.078 1.078 0 0 0 .51-.9 1.016 1.016 0 0 0-.499-.861 3.975 3.975 0 0 0-1.56-.513 4.52 4.52 0 0 1-2.095-.783 1.737 1.737 0 0 1-.683-1.375 1.878 1.878 0 0 1 .78-1.617 3.417 3.417 0 0 1 2.014-.58Zm8.418 6.8a.483.483 0 0 1 .37.157.569.569 0 0 1 .145.392.514.514 0 0 1-.172.392.623.623 0 0 1-.429.156h-.296a2.58 2.58 0 0 1-1.354-.356 2.69 2.69 0 0 1-.94-.995 3.024 3.024 0 0 1-.328-1.417v-3.81h-.928a.534.534 0 0 1-.37-.129.514.514 0 0 1-.126-.345.49.49 0 0 1 .125-.344.51.51 0 0 1 .37-.141h.93v-2.22a.58.58 0 0 1 .14-.392.558.558 0 0 1 .955.392v2.22h1.612a.454.454 0 0 1 .355.141.438.438 0 0 1 .144.345.462.462 0 0 1-.309.446.473.473 0 0 1-.19.027h-1.612v3.822c-.016.44.138.871.43 1.202a1.435 1.435 0 0 0 1.096.458h.382Zm5.82-6.812c.321-.014.642.04.94.157.235.105.356.25.356.442a.482.482 0 0 1 0 .13.439.439 0 0 1-.184.273.639.639 0 0 1-.327.07c-.086 0-.234 0-.445-.027a3.256 3.256 0 0 0-.34 0 2.643 2.643 0 0 0-1.751.572 1.866 1.866 0 0 0-.671 1.492v4.264a.569.569 0 0 1-.658.526.565.565 0 0 1-.282-.135.557.557 0 0 1-.145-.391v-6.743a.545.545 0 0 1 .543-.544.541.541 0 0 1 .542.544v.63c.268-.394.63-.714 1.053-.931.424-.217.894-.33 1.37-.329Zm3.235.642a.543.543 0 0 1 .338-.521.536.536 0 0 1 .215-.039.501.501 0 0 1 .39.16.549.549 0 0 1 .157.392v6.707a.55.55 0 0 1-.334.515.501.501 0 0 1-.213.037.54.54 0 0 1-.546-.552l-.007-6.699Zm.553-3.606a.754.754 0 0 1 .543.216.724.724 0 0 1 .226.556.785.785 0 0 1-.48.735.778.778 0 0 1-.858-.176.785.785 0 0 1-.215-.56.731.731 0 0 1 .23-.555.778.778 0 0 1 .555-.216Zm9.106 10.02c.095.108.15.246.156.391a.448.448 0 0 1-.156.345.475.475 0 0 1-.328.129.539.539 0 0 1-.5-.258l-2.34-2.992-2.419 3.062a.456.456 0 0 1-.39.172.51.51 0 0 1-.39-.14.502.502 0 0 1-.125-.345.565.565 0 0 1 .14-.392l2.466-3.093-2.34-2.976a.55.55 0 0 1-.145-.391.522.522 0 0 1 .129-.36.48.48 0 0 1 .37-.141.568.568 0 0 1 .414.172l2.294 2.964 2.266-2.878a.58.58 0 0 1 .469-.258.452.452 0 0 1 .358.144.468.468 0 0 1 .14.345.67.67 0 0 1-.155.415l-2.364 2.944 2.45 3.14Z" fill="#2196F3"/><path d="M14.568 13.465a1.5 1.5 0 0 0-.14.051 2.71 2.71 0 0 0-1.346 1.222 2.78 2.78 0 0 0-.285 1.813c.011.081.027.162.047.242 0 .082.047.165.074.247a2.905 2.905 0 0 0 1.014 1.359l.117.078c.088.055.18.104.273.149l.2.094c.32.129.661.195 1.006.195h.093a2.994 2.994 0 0 0 1.062-.242 2.798 2.798 0 0 0 1.408-1.41 2.845 2.845 0 0 0 .117-2.005 2.774 2.774 0 0 0-1.229-1.566 2.722 2.722 0 0 0-1.95-.332l-.121-.004-.34.11Z" fill="#FFD833"/><path d="M13.035 13.332a11.176 11.176 0 0 1-1.705-4.867C9.918 7.288 7.658 6.714 4.55 6.743a9.318 9.318 0 0 0 .554 3.754h-.031c.321.771.77 1.482 1.326 2.103a.114.114 0 0 0 0 .035s0 .02.024.028c.195.219.412.418.647.595a9.885 9.885 0 0 0 4.853 1.957 3.754 3.754 0 0 1 1.112-1.883Zm-5.957 7.38h-.031c-.897 1.36-1.463 3.304-1.697 5.83a8.68 8.68 0 0 0 3.76-.187 7.19 7.19 0 0 0 2.684-1.508v-.031l.184-.188h.035a10.083 10.083 0 0 0 2.458-4.93 3.66 3.66 0 0 1-1.498-.888 10.683 10.683 0 0 1-5.895 1.903Zm-.597-6.671a6.302 6.302 0 0 1-.585-.533c-1.438.397-3.031 1.31-4.779 2.741a8.514 8.514 0 0 0 2.731 2.6 6.509 6.509 0 0 0 2.957.877h.277a9.62 9.62 0 0 0 5.278-1.68 3.781 3.781 0 0 1-.523-1.797 10.964 10.964 0 0 1-5.356-2.208Zm11.001-1.116a10.204 10.204 0 0 0 1.65-4.698v-.063c0-.196.032-.392.032-.595a6.75 6.75 0 0 0-.894-3.29 8.532 8.532 0 0 0-2.555-2.787 8.47 8.47 0 0 0-2.563 2.776 6.753 6.753 0 0 0-.893 3.293c-.002.197.009.395.031.591v.063c.144 1.621.68 3.183 1.56 4.55a3.602 3.602 0 0 1 3.644.16h-.012Zm1.311 11.08v-.03a11.773 11.773 0 0 0-1.6-4.531c-.518.27-1.093.41-1.677.411h-.062a11.072 11.072 0 0 1-2.731 5.435v.027H12.7c.275 1.629 1.217 3.427 2.824 5.395a8.993 8.993 0 0 0 2.528-2.819 6.838 6.838 0 0 0 .83-2.63.345.345 0 0 1-.058-.189c.04-.356.03-.716-.03-1.069Z" fill="#FF4081"/></svg>
