<svg width="76" height="32" fill="none" xmlns="http://www.w3.org/2000/svg"><path d="M37.283 18.092h1.169v2.475h.844l1.516-2.475h1.277l-1.819 2.904v.02l1.928 3.17h-1.321l-1.56-2.659h-.843v2.659h-1.17V18.09h-.02v.001Zm7.534 1.616c1.406 0 2.554.96 2.554 2.29 0 1.35-1.126 2.29-2.532 2.29-1.408 0-2.534-.94-2.534-2.29-.021-1.35 1.104-2.29 2.512-2.29Zm3.463.102h1.104v3.436h1.451V19.81h1.103v3.436h1.451V19.81h1.104v4.376h-6.17v-4.377h-.043Zm9.483-.102c1.32 0 2.056.92 2.056 2.066a2.886 2.886 0 0 1-.043.428h-3.183c.065.757.693 1.166 1.386 1.166.476 0 .952-.204 1.32-.47l.455.777c-.476.388-1.19.634-1.861.634-1.538 0-2.49-1.043-2.49-2.29 0-1.37.974-2.311 2.36-2.311Zm2.597 3.558c.563-.082.974-.531.974-2.086v-1.37h3.378v4.376h-1.148v-3.497h-1.126v.49c0 1.902-.54 3.007-2.078 3.048v-.962.001Zm7.642-3.558c1.32 0 2.056.92 2.056 2.066a2.886 2.886 0 0 1-.043.428h-3.182c.065.757.693 1.166 1.386 1.166.476 0 .952-.204 1.32-.47l.455.777c-.477.388-1.191.634-1.862.634-1.537 0-2.49-1.043-2.49-2.29 0-1.37.975-2.311 2.36-2.311Zm3.01.102h1.146v1.677h.563l1.126-1.677h1.277l-1.472 2.086v.02l1.645 2.27h-1.341l-1.213-1.779h-.605v1.779h-1.15v-4.377h.023Zm-26.195 3.538c.758 0 1.385-.552 1.385-1.37 0-.798-.627-1.37-1.386-1.37-.757 0-1.363.552-1.363 1.37 0 .818.606 1.37 1.364 1.37Zm13.833-1.902c0-.573-.412-.92-.931-.92-.584 0-1.017.368-1.126.92h2.057Zm10.24 0c0-.573-.411-.92-.931-.92-.585 0-1.018.368-1.126.92h2.056Z" fill="#2D3540"/><path d="M53.457 4.82v10.327a.266.266 0 0 1-.087.204.298.298 0 0 1-.215.082h-2.23a.314.314 0 0 1-.217-.082.28.28 0 0 1-.086-.204V4.82a.266.266 0 0 1 .086-.204.298.298 0 0 1 .216-.082h2.23a.312.312 0 0 1 .216.082.279.279 0 0 1 .087.204Zm17.405-.286c.087 0 .196.04.303.122.066.061.066.164.044.246l-3.68 10.348a.294.294 0 0 1-.112.132.32.32 0 0 1-.17.052h-1.991c-.13 0-.239-.062-.282-.184L62.83 9.217l-2.143 6.032a.295.295 0 0 1-.111.132.32.32 0 0 1-.17.052h-1.992c-.13 0-.238-.06-.281-.184L54.452 4.9c-.022-.081-.022-.163.043-.245.044-.082.152-.122.238-.122h2.49c.13 0 .238.081.282.204l1.97 6.114 2.164-6.114a.294.294 0 0 1 .111-.133.32.32 0 0 1 .17-.052h1.754c.13 0 .238.062.281.185l2.166 6.114 1.97-6.114a.282.282 0 0 1 .105-.146.31.31 0 0 1 .176-.058h2.49Zm3.767 0c.151 0 .281.122.303.286v10.327a.266.266 0 0 1-.087.204.298.298 0 0 1-.216.082h-2.23a.313.313 0 0 1-.216-.082.28.28 0 0 1-.087-.204V4.82a.266.266 0 0 1 .087-.204.298.298 0 0 1 .216-.082h2.23ZM49.322 15.066c.13.143.022.347-.173.347H46.42a.366.366 0 0 1-.281-.123l-.454-.531a6.366 6.366 0 0 1-3.27.92c-3.333 0-6.04-2.556-6.04-5.706 0-3.15 2.707-5.706 6.04-5.706 3.334 0 6.04 2.557 6.04 5.706a5.512 5.512 0 0 1-.952 3.088l1.818 2.004Zm-22.795 5.01c.563.204.78 1.002.822 1.35.087.634-.107.879-.324.879-.216 0-.52-.245-.844-.736-.325-.491-.455-1.043-.282-1.33.108-.184.346-.265.628-.163Zm-3.29 2.311c.346 0 .736.143 1.082.43.67.53.866 1.145.52 1.594-.196.225-.52.368-.888.368s-.758-.122-1.017-.347c-.607-.49-.78-1.31-.39-1.759.151-.184.39-.286.692-.286Zm-7.577 5.91c-8.227 0-14.894-6.299-14.894-14.07S7.434.157 15.659.157c8.226 0 14.894 6.3 14.894 14.07 0 2.638-.779 5.113-2.099 7.219-.044.061-.152.04-.174-.041-.52-3.456-2.749-5.358-5.996-5.93-.282-.042-.325-.205.043-.246.996-.082 2.403-.061 3.139.061.044-.36.066-.721.065-1.083 0-5.134-4.416-9.306-9.85-9.306-5.434 0-9.85 4.172-9.85 9.306 0 5.133 4.416 9.305 9.85 9.305h.455c-.155-.83-.22-1.673-.196-2.516.023-.572.152-.655.412-.204 1.364 2.229 3.313 4.233 7.122 5.03 3.118.655 6.235 1.412 9.59 5.44.303.348-.15.716-.498.43-3.42-2.864-6.537-3.804-9.373-3.804-3.183.02-5.347.409-7.534.409h.001Zm28.25-15.522-1.19-1.37c-.13-.143-.021-.368.173-.368h2.511c.13-.328.195-.696.195-1.064a3.157 3.157 0 0 0-3.182-3.17 3.158 3.158 0 0 0-3.183 3.17 3.14 3.14 0 0 0 3.182 3.15c.52.02 1.04-.123 1.494-.348Z" fill="#FF8C00"/></svg>
