<svg width="65" height="33" fill="none" xmlns="http://www.w3.org/2000/svg"><g clip-path="url(#a)"><path d="M55.642 9.581v7.811h-2.8v-5.479h-2.697v5.48h-2.801V9.58h8.298Z" fill="#000"/><path fill-rule="evenodd" clip-rule="evenodd" d="M41.592 17.672c2.507 0 4.37-1.531 4.37-3.852 0-2.246-1.375-3.705-3.67-3.705-1.06 0-1.934.372-2.593 1.012.157-1.324 1.282-2.291 2.52-2.291l2.438-.005 1.217-2.318s-2.702.06-3.957.06c-2.87.05-4.808 2.648-4.808 5.802 0 3.675 1.89 5.297 4.483 5.297Zm.015-5.503c.931 0 1.577.61 1.577 1.65 0 .938-.574 1.71-1.577 1.713-.96 0-1.605-.716-1.605-1.696 0-1.042.646-1.667 1.605-1.667Z" fill="#000"/><path d="M34.829 14.777s-.662.38-1.65.452c-1.135.034-2.147-.68-2.147-1.95 0-1.238.893-1.948 2.119-1.948.752 0 1.746.52 1.746.52s.728-1.33 1.105-1.996c-.69-.52-1.61-.806-2.68-.806-2.698 0-4.789 1.752-4.789 4.214 0 2.494 1.965 4.206 4.79 4.154.79-.03 1.878-.305 2.542-.73l-1.036-1.91Z" fill="#000"/><path d="m.389 7.416 3.885 6.915v4.219l-3.88 6.902L.388 7.416Z" fill="#5B57A2"/><path d="m15.307 11.815 3.64-2.222 7.451-.007-11.091 6.766v-4.537Z" fill="#D90751"/><path d="m15.286 7.375.02 9.156-3.894-2.383V.462l3.874 6.913Z" fill="#FAB718"/><path d="m26.398 9.586-7.451.007-3.661-2.218L11.412.462l14.986 9.124Z" fill="#ED6F26"/><path d="M15.306 25.49v-4.442l-3.894-2.338.002 13.7 3.892-6.92Z" fill="#63B22F"/><path d="M18.938 23.288 4.274 14.331.389 7.417l25.993 15.863-7.444.01Z" fill="#1487C9"/><path d="m11.414 32.41 3.892-6.92 3.631-2.201 7.444-.01-14.967 9.132Z" fill="#017F36"/><path d="m.393 25.452 11.05-6.741-3.715-2.27-3.455 2.109-3.88 6.902Z" fill="#984995"/><path d="M31.032 22.65a.805.805 0 0 1-.333.245 1.241 1.241 0 0 1-.873.011.941.941 0 0 1-.558-.534 1.108 1.108 0 0 1-.079-.422 1.05 1.05 0 0 1 .288-.73 1.017 1.017 0 0 1 .727-.301c.16 0 .308.02.443.06.135.04.25.107.345.2l-.165.277a.772.772 0 0 0-.274-.16.97.97 0 0 0-.3-.046.688.688 0 0 0-.685.702.696.696 0 0 0 .213.511.636.636 0 0 0 .23.14c.088.033.18.049.279.049a.733.733 0 0 0 .326-.071.813.813 0 0 0 .247-.184l.17.252Zm.463.283v-1.972h.356v1.47l1.156-1.47h.356v1.972h-.356v-1.469l-1.156 1.47h-.355v-.001Zm4.223-.284a.803.803 0 0 1-.333.246 1.245 1.245 0 0 1-.873.011.943.943 0 0 1-.558-.534 1.106 1.106 0 0 1-.078-.422 1.05 1.05 0 0 1 .288-.73c.09-.092.198-.163.32-.219a.975.975 0 0 1 .406-.082c.16 0 .309.02.444.06.135.04.25.107.344.2l-.164.277a.77.77 0 0 0-.275-.16.97.97 0 0 0-.299-.046.675.675 0 0 0-.63.414.7.7 0 0 0-.056.288.696.696 0 0 0 .213.511.638.638 0 0 0 .23.14.83.83 0 0 0 .279.049c.122 0 .23-.025.326-.071a.814.814 0 0 0 .248-.184l.168.252Zm.183-1.688h1.824v.35h-.733v1.622h-.356v-1.622h-.733v-.35H35.9Z" fill="#000"/><path fill-rule="evenodd" clip-rule="evenodd" d="M39.386 22.913a.928.928 0 0 0 .349-.195l-.108-.274a.836.836 0 0 1-.259.146c-.106.04-.225.06-.355.06a.746.746 0 0 1-.486-.155.6.6 0 0 1-.214-.437h1.539a1.066 1.066 0 0 0-.052-.605.872.872 0 0 0-.198-.285.882.882 0 0 0-.297-.184 1.136 1.136 0 0 0-.803.016.925.925 0 0 0-.522.545 1.133 1.133 0 0 0-.07.402c0 .156.027.297.077.424a.93.93 0 0 0 .553.534 1.348 1.348 0 0 0 .846.009Zm-.9-1.517a.63.63 0 0 1 .441-.149.59.59 0 0 1 .414.14.539.539 0 0 1 .164.385H38.29a.6.6 0 0 1 .196-.376Z" fill="#000"/><path d="M40.357 20.961h.325l.769.978.729-.978h.315v1.972h-.356v-1.438l-.693.915h-.013l-.72-.915v1.438h-.356v-1.972Z" fill="#000"/><path fill-rule="evenodd" clip-rule="evenodd" d="M43.463 20.968a1.121 1.121 0 0 0-.306.13l.095.28c.08-.04.162-.073.243-.102a.933.933 0 0 1 .308-.042c.099 0 .178.015.239.046.06.03.105.074.137.127.031.053.051.12.063.197.011.077.016.162.016.253a.61.61 0 0 0-.244-.1 1.398 1.398 0 0 0-.256-.027 1.11 1.11 0 0 0-.3.042.661.661 0 0 0-.24.12.57.57 0 0 0-.216.465c0 .193.056.344.169.45.112.106.26.16.445.16.167 0 .3-.03.4-.087a.804.804 0 0 0 .242-.2v.255h.332v-1.21c0-.256-.056-.456-.17-.595-.113-.14-.313-.21-.597-.21-.126 0-.245.017-.36.048Zm.594 1.598a.536.536 0 0 1-.317.083.394.394 0 0 1-.268-.084.291.291 0 0 1-.094-.226c0-.055.011-.101.036-.143a.327.327 0 0 1 .097-.103.427.427 0 0 1 .137-.06.753.753 0 0 1 .608.11v.252a1.024 1.024 0 0 1-.199.17Zm3.672-2.298a.545.545 0 0 0 .203-.17l-.194-.277a.39.39 0 0 1-.169.137 1.068 1.068 0 0 1-.207.057l-.067.012-.19.033a1.4 1.4 0 0 0-.314.097.996.996 0 0 0-.385.28c-.096.117-.173.25-.225.396a2.072 2.072 0 0 0-.105.459c-.019.16-.028.312-.028.458 0 .189.025.359.075.512.05.153.119.281.211.385a.925.925 0 0 0 .333.244c.13.058.277.086.441.086.15 0 .29-.028.416-.082a1.005 1.005 0 0 0 .536-.54.992.992 0 0 0 .076-.39c0-.148-.022-.283-.065-.403a.821.821 0 0 0-.48-.508 1.027 1.027 0 0 0-.636-.037.964.964 0 0 0-.412.239.652.652 0 0 0-.13.188h-.01c.008-.09.019-.183.04-.279.02-.095.049-.186.087-.272a.952.952 0 0 1 .148-.235.672.672 0 0 1 .234-.166c.098-.047.202-.08.309-.1l.07-.013c.07-.012.138-.025.202-.038.085-.018.164-.04.236-.073Zm-1.25 1.894a1.1 1.1 0 0 1-.05-.345.557.557 0 0 1 .08-.189.661.661 0 0 1 .147-.16.743.743 0 0 1 .463-.157c.21 0 .367.065.477.191.11.129.165.288.165.48a.707.707 0 0 1-.05.262.63.63 0 0 1-.342.352.657.657 0 0 1-.268.054.62.62 0 0 1-.486-.226.832.832 0 0 1-.137-.262Zm4.384-1.2h-.355v1.971h.355v-1.972Zm-2.214 0h.356v.591h.328c.155 0 .281.02.383.057a.654.654 0 0 1 .243.151c.06.062.103.136.128.217a.879.879 0 0 1 .038.255.773.773 0 0 1-.043.257.582.582 0 0 1-.137.224.661.661 0 0 1-.256.16c-.108.04-.239.061-.396.061h-.646v-1.974h.002Zm.356.92v.723h.258c.178 0 .304-.03.376-.093.072-.062.108-.15.108-.268 0-.12-.038-.21-.11-.273-.074-.061-.198-.093-.369-.093h-.263v.005Z" fill="#000"/><path d="M53.214 22.65a.804.804 0 0 1-.333.245 1.242 1.242 0 0 1-.873.011.945.945 0 0 1-.558-.534 1.112 1.112 0 0 1-.079-.422 1.046 1.046 0 0 1 .288-.73c.09-.092.198-.163.32-.219a.975.975 0 0 1 .407-.082c.16 0 .308.02.443.06.135.04.25.107.344.2l-.164.277a.772.772 0 0 0-.275-.16.97.97 0 0 0-.299-.046.69.69 0 0 0-.63.414.7.7 0 0 0-.056.288.698.698 0 0 0 .214.511.637.637 0 0 0 .23.14c.087.031.18.049.278.049a.74.74 0 0 0 .327-.071.814.814 0 0 0 .247-.184l.169.252Zm.182-1.689h1.825v.35h-.734v1.622h-.355v-1.622h-.734v-.35h-.002Z" fill="#000"/><path fill-rule="evenodd" clip-rule="evenodd" d="M55.963 20.962h-.356v2.849h.356v-.968a.78.78 0 0 0 .256.101c.1.023.203.034.309.034a1.023 1.023 0 0 0 .756-.305.973.973 0 0 0 .211-.338c.05-.13.074-.27.074-.419 0-.146-.022-.28-.065-.403a.938.938 0 0 0-.184-.314.8.8 0 0 0-.29-.206.936.936 0 0 0-.386-.076c-.139 0-.27.027-.393.08a.761.761 0 0 0-.288.197v-.232Zm.248.365a.7.7 0 0 1 .33-.08c.104 0 .196.016.28.05.08.032.148.079.204.141a.587.587 0 0 1 .126.217.83.83 0 0 1 .043.275.861.861 0 0 1-.05.29.63.63 0 0 1-.356.374.721.721 0 0 1-.29.056 1.08 1.08 0 0 1-.272-.033.893.893 0 0 1-.263-.12v-.977a.809.809 0 0 1 .248-.193Zm4.085-.366h-.355v1.972h.355v-1.971Zm-2.216 0h.355v.592h.329c.155 0 .281.02.382.058a.654.654 0 0 1 .243.15c.061.062.104.136.128.217a.869.869 0 0 1 .039.255.774.774 0 0 1-.043.257.582.582 0 0 1-.137.224.66.66 0 0 1-.257.16c-.108.04-.238.061-.395.061h-.646v-1.973h.002Zm.358.922v.722h.259c.177 0 .303-.03.375-.093.072-.062.108-.15.108-.268 0-.12-.038-.21-.11-.272-.074-.063-.198-.094-.369-.094h-.263v.005Z" fill="#000"/><path d="m62 21.912.761 1.021h-.436l-.588-.797-.596.797h-.414l.756-1.003-.71-.969h.436l.542.745.551-.745h.414l-.715.95ZM30.77 25.37h-1.091v1.644h-.356v-1.972h1.802v1.972h-.355V25.37Zm2.373.022h-.702l-.022.332a3.988 3.988 0 0 1-.106.68 1.244 1.244 0 0 1-.173.4.496.496 0 0 1-.237.188.821.821 0 0 1-.29.049l-.027-.342a.29.29 0 0 0 .133-.029.37.37 0 0 0 .146-.143c.048-.076.09-.182.129-.32a2.75 2.75 0 0 0 .076-.549l.036-.614h1.393v1.972h-.356v-1.624Z" fill="#000"/><path fill-rule="evenodd" clip-rule="evenodd" d="M34.457 25.047c-.115.03-.218.075-.306.13l.095.28c.08-.04.162-.073.243-.102a.943.943 0 0 1 .308-.042c.1 0 .178.015.238.046.061.029.106.073.138.126.031.054.051.12.063.198.01.077.015.161.015.252a.61.61 0 0 0-.243-.1 1.398 1.398 0 0 0-.256-.026c-.106 0-.205.015-.3.042a.659.659 0 0 0-.24.12.571.571 0 0 0-.216.465c0 .192.056.343.169.45.112.106.26.16.445.16.167 0 .3-.03.4-.087a.804.804 0 0 0 .241-.2v.255h.334v-1.21c0-.256-.057-.456-.172-.595-.112-.14-.312-.21-.596-.21-.121 0-.242.016-.36.048Zm.596 1.597a.533.533 0 0 1-.316.084.389.389 0 0 1-.268-.084.291.291 0 0 1-.095-.226c0-.055.011-.102.036-.144a.324.324 0 0 1 .097-.102.426.426 0 0 1 .137-.06.755.755 0 0 1 .608.11v.251a1.025 1.025 0 0 1-.199.17Z" fill="#000"/><path d="M35.934 25.042h1.824v.35h-.733v1.622h-.356v-1.622h-.733v-.35h-.002Z" fill="#000"/><path fill-rule="evenodd" clip-rule="evenodd" d="M39.417 26.994a.927.927 0 0 0 .35-.195l-.109-.275a.835.835 0 0 1-.259.147c-.105.04-.224.06-.355.06a.746.746 0 0 1-.486-.155.598.598 0 0 1-.214-.437h1.54c.015-.069.022-.146.022-.237a.889.889 0 0 0-.273-.654.879.879 0 0 0-.297-.184 1.136 1.136 0 0 0-.803.015.93.93 0 0 0-.522.545c-.047.13-.07.267-.07.404 0 .155.027.297.077.423a.928.928 0 0 0 .554.534 1.353 1.353 0 0 0 .846.009Zm-.901-1.52a.63.63 0 0 1 .44-.148c.176 0 .313.049.414.14a.54.54 0 0 1 .165.385H38.32a.6.6 0 0 1 .196-.377Zm1.563-.432h.45l.686.95-.733 1.022h-.437l.77-1.021-.736-.95Zm1.224 0h.355v1.972h-.355v-1.972Zm1.626 1.972-.782-1.021.73-.95h-.44l-.691.95.742 1.021h.441Zm1.625-.02a.927.927 0 0 0 .348-.195l-.108-.275a.836.836 0 0 1-.258.147c-.106.04-.225.06-.356.06a.746.746 0 0 1-.486-.155.6.6 0 0 1-.213-.437h1.538c.016-.069.023-.146.023-.237a.886.886 0 0 0-.57-.838 1.138 1.138 0 0 0-.803.015.921.921 0 0 0-.522.545 1.133 1.133 0 0 0-.07.404c0 .155.028.297.077.423a.928.928 0 0 0 .553.534 1.352 1.352 0 0 0 .846.009Zm-.902-1.52c.11-.1.256-.148.44-.148.174 0 .313.049.415.14a.538.538 0 0 1 .164.385h-1.215a.6.6 0 0 1 .196-.377Zm2.832-1.094c-.209 0-.324-.115-.342-.346h-.335c0 .089.016.169.045.244.03.075.072.14.128.193a.657.657 0 0 0 .212.128c.083.033.18.049.29.049a.708.708 0 0 0 .48-.177.56.56 0 0 0 .132-.193.618.618 0 0 0 .047-.244h-.333c-.015.23-.126.346-.324.346Zm-.96.662v1.972h.355l1.156-1.469v1.469h.356v-1.972h-.356l-1.156 1.469v-1.469h-.355Z" fill="#000"/></g><defs><clipPath id="a"><path fill="#fff" transform="translate(.389 .462)" d="M0 0h63.898v31.949H0z"/></clipPath></defs></svg>
