<svg width="80" height="26" fill="none" xmlns="http://www.w3.org/2000/svg"><path d="M11.824 23.471c5.777 0 10.46-4.683 10.46-10.46 0-5.778-4.683-10.461-10.46-10.461-5.777 0-10.46 4.683-10.46 10.46 0 5.778 4.683 10.461 10.46 10.461Z" fill="#26A17B"/><path d="M12.94 13.976v-.002c-.072.005-.445.027-1.276.027-.665 0-1.13-.019-1.295-.027v.002c-2.555-.113-4.46-.557-4.46-1.09 0-.531 1.907-.977 4.46-1.09v1.737c.166.012.646.04 1.306.04.794 0 1.191-.033 1.265-.04v-1.735c2.55.114 4.45.558 4.45 1.09 0 .531-1.902.975-4.45 1.09v-.002Zm0-2.358v-1.554h3.557v-2.37H6.814v2.37h3.556v1.554c-2.89.133-5.063.704-5.063 1.39 0 .687 2.174 1.259 5.063 1.393v4.982h2.572V14.4c2.886-.133 5.055-.704 5.055-1.39 0-.685-2.17-1.259-5.055-1.391" fill="#fff"/><path d="M31.172 8.342v2.512h2.441v1.886h-2.458v3.822c0 .845.465 1.256 1.148 1.256.342 0 .737-.107 1.06-.269l.61 1.867a4.912 4.912 0 0 1-1.813.377c-1.92.072-3.176-1.023-3.176-3.23V12.74h-1.652v-1.886h1.651V8.576l2.189-.234Zm42.099 2.395.162 1.022c.682-1.095 1.597-1.256 2.495-1.256.915 0 1.795.358 2.279.842l-.987 1.902c-.45-.376-.861-.575-1.58-.575-1.148 0-2.207.61-2.207 2.244v4.667h-2.19v-8.85l2.028.004Zm-5.367 3.392c-.142-1.149-1.04-1.724-2.297-1.724-1.184 0-2.154.575-2.477 1.724h4.774Zm-4.81 1.813c.144 1.095 1.095 1.885 2.64 1.885.807 0 1.866-.306 2.369-.826l1.4 1.383c-.934.968-2.46 1.436-3.807 1.436-3.05 0-4.865-1.885-4.865-4.72 0-2.693 1.831-4.632 4.704-4.632 2.962 0 4.811 1.831 4.47 5.474h-6.91ZM53.439 7.02v4.917c.79-1.022 1.76-1.328 2.765-1.328 2.512 0 3.626 1.705 3.626 4.309v4.666h-2.19v-4.648c0-1.616-.844-2.297-2.011-2.297-1.294 0-2.19 1.095-2.19 2.423v4.524h-2.19V7.022l2.19-.002Zm-5.816 1.22v2.514h2.442v1.885h-2.458v3.822c0 .845.467 1.257 1.148 1.257.342 0 .737-.108 1.06-.27l.61 1.867a4.912 4.912 0 0 1-1.813.377c-1.92.072-3.176-1.024-3.176-3.23v-3.823h-1.652v-1.885h1.651v-2.28l2.189-.233Zm-6.049 5.889c-.143-1.149-1.04-1.724-2.297-1.724-1.184 0-2.154.575-2.477 1.724h4.774Zm-4.81 1.813c.143 1.095 1.095 1.885 2.639 1.885.807 0 1.867-.306 2.37-.826l1.399 1.383c-.934.968-2.459 1.436-3.806 1.436-3.052 0-4.865-1.885-4.865-4.72 0-2.693 1.831-4.632 4.702-4.632 2.962 0 4.81 1.831 4.47 5.474h-6.909Z" fill="#5B5A5D"/></svg>
