<svg width="59" height="21" fill="none" xmlns="http://www.w3.org/2000/svg"><g clip-path="url(#a)"><path d="M38.042.756c-4.133 0-7.826 2.2-7.826 6.262 0 4.66 6.55 4.981 6.55 7.322 0 .986-1.1 1.868-2.98 1.868-2.666 0-4.659-1.233-4.659-1.233l-.853 4.1s2.296 1.041 5.345 1.041c4.518 0 8.073-2.307 8.073-6.44 0-4.923-6.577-5.235-6.577-7.407 0-.773.903-1.618 2.777-1.618 2.114 0 3.839.896 3.839.896l.834-3.96S40.69.756 38.042.756Zm-37.81.299-.1.598s1.74.326 3.305.978c2.016.747 2.16 1.182 2.5 2.533l3.7 14.644h4.96l7.641-18.753H17.29l-4.91 12.75-2.004-10.808c-.184-1.236-1.115-1.942-2.254-1.942H.232Zm23.996 0-3.882 18.753h4.72l3.868-18.753h-4.706Zm26.32 0c-1.138 0-1.74.625-2.183 1.718L41.45 19.808H46.4l.957-2.839h6.03l.581 2.84h4.367l-3.81-18.754h-3.977Zm.644 5.066 1.466 7.038h-3.93l2.464-7.038Z" fill="#1434CB"/></g><defs><clipPath id="a"><path fill="#fff" transform="translate(.104 .726)" d="M0 0h58.26v19.42H0z"/></clipPath></defs></svg>
