<svg width="105" height="26" fill="none" xmlns="http://www.w3.org/2000/svg"><g clip-path="url(#a)"><path d="m101.461 7.95-2.337 5.679c0 .079-.08.158-.08.237l-.08.157-.082-.157c0-.08-.08-.158-.08-.237l-2.336-5.68h-3.062l4.028 9.782-1.692 3.707h3.062L104.44 7.95h-2.98ZM78.901 8.502c-.564-.394-1.208-.631-2.014-.71-1.37-.158-2.659.316-3.465 1.262V7.95h-2.738v9.78h2.738v-5.126c0-1.183.242-1.42.404-1.736.322-.552.966-.867 1.691-.788.725 0 1.45.315 1.773.867.241.395.241.868.241 1.184v5.6h2.74v-5.916c0-1.578-.484-2.603-1.37-3.313ZM65.447 8.029c-1.369-.474-2.82-.395-4.189.236-.966.395-1.692 1.104-2.256 1.972-.483.789-.725 1.657-.725 2.682s.242 1.893.725 2.682c.484.789 1.128 1.34 1.934 1.814a6.257 6.257 0 0 0 2.658.631c.484 0 .967-.079 1.45-.158a3.842 3.842 0 0 0 1.209-.473c.806-.473 1.45-1.025 1.934-1.735.483-.789.725-1.657.725-2.682-.08-2.366-1.37-4.18-3.465-4.97Zm.725 4.89c0 .868-.322 1.578-.885 2.05-.404.395-.968.553-1.773.553-.725 0-1.29-.237-1.773-.552-.564-.473-.805-1.183-.886-2.051 0-.947.322-1.814 1.048-2.366.402-.316.886-.474 1.53-.474.645 0 1.128.158 1.531.474.886.552 1.289 1.42 1.208 2.366ZM55.136 8.502c-.483-.395-1.208-.631-2.014-.71h-.483c-1.128 0-2.014.473-2.82 1.42l-.161.157h-.322c-.242-.315-.484-.63-.806-.789-.483-.473-1.128-.71-1.934-.788-1.288-.158-2.336.236-3.222 1.183V7.949h-2.74v9.781h2.74V12.524c0-1.104.161-1.34.322-1.656.322-.552.967-.868 1.611-.868.645 0 1.29.316 1.612.868.242.394.242.868.242 1.34v5.443h2.82v-5.206c0-.946.16-1.34.322-1.656.322-.552.966-.789 1.61-.789.645 0 1.21.395 1.532.868.16.315.241.71.241 1.025v5.837h2.74v-5.915c0-.553-.081-1.026-.162-1.5-.16-.788-.564-1.419-1.128-1.813ZM90.665 14.733c-.403.395-1.37 1.105-2.659 1.183-1.047 0-1.933-.236-2.497-.867-.242-.316-.484-.631-.564-1.026h7.654v-.079c.08-.394.08-.788.08-1.104 0-.315-.08-.789-.242-1.42-.322-1.104-.966-1.972-1.853-2.682-.966-.71-1.933-.946-2.175-.946-2.014-.316-4.27.552-5.398 2.366-.806 1.262-.806 2.524-.725 2.919 0 .473.08 1.972 1.29 3.234 1.369 1.499 3.383 1.577 4.028 1.656 2.739.08 4.592-1.577 4.995-1.972l-1.934-1.262Zm-4.753-4.101c.402-.316.886-.474 1.53-.474.645 0 1.128.158 1.531.474.403.315.725.71.886 1.262h-4.914c.242-.553.564-.947.967-1.262Z" fill="#000"/><path d="M21.622 1.56c-6.204 0-11.118 4.89-11.118 10.886 0 5.994 4.995 10.885 11.118 10.885s11.118-4.89 11.118-10.885C32.82 6.45 27.745 1.56 21.622 1.56Zm0 14.909c-2.256 0-4.19-1.815-4.19-4.023 0-2.209 1.853-4.023 4.19-4.023 2.336 0 4.19 1.814 4.19 4.023a4.155 4.155 0 0 1-4.19 4.022ZM10.504 4.794V20.65H6.556L1.48 4.794h9.024Z" fill="#8B3FFD"/></g><defs><clipPath id="a"><path fill="#fff" transform="translate(.924 .447)" d="M0 0h103.992v25.058H0z"/></clipPath></defs></svg>
