<svg width="17" height="17" fill="currentColor" xmlns="http://www.w3.org/2000/svg"><path fill-rule="evenodd" clip-rule="evenodd" d="M13.629 1.407V7.88a2.4 2.4 0 0 0 0 4.656V15.807a.8.8 0 0 0 1.6 0v-3.2a1.013 1.013 0 0 0 0-.216 2.4 2.4 0 0 0 0-4.368 1.013 1.013 0 0 0 0-.216v-6.4a.8.8 0 1 0-1.6 0Zm1.376 8.8a.8.8 0 1 1-1.6 0 .8.8 0 0 1 1.6 0ZM8.029 1.407V3.08a2.4 2.4 0 0 0 0 4.648v8.08a.8.8 0 0 0 1.6 0v-8.24a2.4 2.4 0 0 0 0-4.344 1.023 1.023 0 0 0 0-.216v-1.6a.8.8 0 1 0-1.6 0Zm1.376 4a.8.8 0 1 1-1.6 0 .8.8 0 0 1 1.6 0ZM2.429 1.407v7.28a2.4 2.4 0 0 0 0 4.64v2.48a.8.8 0 0 0 1.6 0v-2.64a2.4 2.4 0 0 0 0-4.32v-7.44a.8.8 0 1 0-1.6 0Zm1.376 9.6a.8.8 0 1 1-1.6 0 .8.8 0 0 1 1.6 0Z"/></svg>
