<svg width="12" height="10" fill="currentColor" xmlns="http://www.w3.org/2000/svg"><path fill-rule="evenodd" clip-rule="evenodd" d="M2.492 9.844a1.398 1.398 0 1 1 0-2.796 1.398 1.398 0 0 1 0 2.796Zm0-1.117a.286.286 0 0 0 .28-.28.28.28 0 1 0-.28.28Z"/><path d="M1.094 5.593a.56.56 0 1 0 0 1.12h5.151l.738 2.718a.56.56 0 1 0 1.08-.297l-.66-2.422h.872c.308.001.577-.21.65-.509L10.2 1.12h1.241a.56.56 0 1 0 0-1.119H9.847a.671.671 0 0 0-.649.509l-1.27 5.084H1.095Z"/><path fill-rule="evenodd" clip-rule="evenodd" d="M1.463 5.034a.671.671 0 0 1-.66-.531L.015.81A.671.671 0 0 1 .669 0h7.009a.671.671 0 0 1 .643.811l-.789 3.692a.671.671 0 0 1-.66.531H1.463Zm5.059-1.119L7.12 1.12H1.225l.598 2.796h4.699Z"/></svg>
