<svg width="12" height="9" fill="currentColor" xmlns="http://www.w3.org/2000/svg"><path fill-rule="evenodd" clip-rule="evenodd" d="M2.23.1h7.574c.784 0 1.42.636 1.42 1.42v4.26a1.42 1.42 0 0 1-1.42 1.42h-3.55L5.165 8.648a.71.71 0 0 1-1.136 0L2.941 7.2h-.71A1.42 1.42 0 0 1 .81 5.78V1.52C.81.736 1.446.1 2.23.1Zm7.574 6.154a.473.473 0 0 0 .474-.474V1.52a.473.473 0 0 0-.474-.473H2.231a.473.473 0 0 0-.473.473v4.26c0 .262.212.474.473.474h1.183L4.598 7.83 5.78 6.254h4.023Z"/><path d="M3.176 2.94h2.367a.473.473 0 0 0 0-.946H3.176a.473.473 0 1 0 0 .946ZM8.383 3.887H3.176a.473.473 0 1 0 0 .946h5.207a.473.473 0 0 0 0-.946Z"/></svg>
