<svg width="13" height="13" fill="currentColor" xmlns="http://www.w3.org/2000/svg"><path d="M12.365 7.342a.546.546 0 0 0-.546.546v3.273a.545.545 0 0 1-.545.545H2.547A.545.545 0 0 1 2 11.161V2.433c0-.3.244-.545.546-.545h3.272a.545.545 0 0 0 0-1.091H2.547C1.643.797.91 1.53.91 2.433v8.728c0 .903.733 1.636 1.637 1.636h8.727c.904 0 1.636-.733 1.636-1.636V7.888a.546.546 0 0 0-.545-.546Z"/><path d="M11.274.797H9.092a.545.545 0 1 0 0 1.09h1.806L5.66 7.13a.545.545 0 1 0 .77.758l5.388-5.378v2.105a.545.545 0 1 0 1.091 0V2.433c0-.903-.732-1.636-1.636-1.636Z"/></svg>
