<svg width="16" height="16" fill="currentColor" xmlns="http://www.w3.org/2000/svg"><path fill-rule="evenodd" clip-rule="evenodd" d="M3.738 12.248a23.09 23.09 0 0 0 3.265 2.565c.64.433 1.48.433 2.12 0a24.03 24.03 0 0 0 3.083-2.599 9.383 9.383 0 0 0 2.572-4.08.673.673 0 0 0-1.313-.309 8.126 8.126 0 0 1-2.215 3.447 22.221 22.221 0 0 1-2.908 2.437.525.525 0 0 1-.599 0 21.705 21.705 0 0 1-3.076-2.417 7.862 7.862 0 0 1-2.35-3.48 11.444 11.444 0 0 1-.148-2.599c0-.592.06-1.144.101-1.555.256 0 .572.054.909.068a6.59 6.59 0 0 0 2.02-.182A6.731 6.731 0 0 0 7.177 2.48c.336-.249.632-.491.861-.673.23.195.525.445.862.673.605.471 1.289.831 2.02 1.064a.674.674 0 0 0 .356-1.3 5.244 5.244 0 0 1-1.548-.847A11.894 11.894 0 0 1 8.625.474a.808.808 0 0 0-1.11 0c-.354.328-.725.635-1.112.923-.47.368-.998.656-1.561.855a5.23 5.23 0 0 1-1.616.127c-.45-.016-.9-.056-1.346-.12a.808.808 0 0 0-.902.72A30.813 30.813 0 0 0 .83 5.186c-.062.983 0 1.968.181 2.935a9.175 9.175 0 0 0 2.727 4.127Z"/><path fill-rule="evenodd" clip-rule="evenodd" d="M7.991 5.126a.677.677 0 0 0-.895 1.017l2.02 1.797a.801.801 0 0 0 1.117.074L15.16 3.39a.674.674 0 0 0-.922-.983l-4.497 4.24-1.75-1.52Z"/></svg>
