<svg width="18" height="25" fill="currentColor" xmlns="http://www.w3.org/2000/svg"><path fill-rule="evenodd" clip-rule="evenodd" d="M11.603.391c.374.396.449.99.184 1.466l-.054.096c-.363.653-.685 1.231-.674 1.954.01.675.496 1.902 2.108 3.263 2.182 1.84 3.26 4.11 3.794 5.889.267.891.402 1.671.47 2.234a10.454 10.454 0 0 1 .069.927v.028s0 .002-1.25.002h1.25a8.75 8.75 0 1 1-17.5 0c0-2.412.339-4.516.82-6.078.238-.777.524-1.46.848-1.989.161-.264.352-.522.576-.738.215-.207.533-.445.954-.54a1.25 1.25 0 0 1 1.514 1.063c.04.315.171.777.38 1.265-.01-.829.051-1.709.22-2.593C5.785 4.176 7.125 1.59 10.15.125a1.25 1.25 0 0 1 1.454.266ZM15 16.253a6.25 6.25 0 0 1-12.5-.003c0-2.136.294-3.95.678-5.241.098.18.203.357.313.528.628.974 1.741 2.213 3.315 2.213a1.25 1.25 0 0 0 1.199-1.602c-.325-1.105-.61-3.087-.237-5.038.16-.832.434-1.641.869-2.375.253 1.392 1.14 2.845 2.918 4.345 1.707 1.44 2.573 3.233 3.011 4.697.22.73.328 1.366.382 1.814a7.945 7.945 0 0 1 .051.636l.001.025v.001Z"/></svg>
