<svg width="25" height="25" fill="currentColor" xmlns="http://www.w3.org/2000/svg"><path fill-rule="evenodd" clip-rule="evenodd" d="M23.421 1.579a5.39 5.39 0 0 0-7.624 0L11.43 5.946a1.26 1.26 0 0 0-.186-.08l-5.009-1.67a1.25 1.25 0 0 0-1.28.303L.367 9.089a1.25 1.25 0 0 0 .366 2.021l4.36 1.985c.043.298.179.585.408.814l5.59 5.591c.23.23.517.365.815.407l1.985 4.36a1.25 1.25 0 0 0 2.022.367l4.59-4.59a1.25 1.25 0 0 0 .301-1.28l-1.67-5.008a1.265 1.265 0 0 0-.079-.187l4.367-4.366a5.39 5.39 0 0 0 0-7.624Zm-9.345 17.063a1.244 1.244 0 0 0-.031-.063l3.045-3.046 1.097 3.29-2.769 2.768-1.342-2.949Zm-7.655-7.687L9.467 7.91l-3.29-1.097L3.41 9.582l2.949 1.342.063.031Zm11.705-8.046a2.892 2.892 0 0 1 3.965 3.965L18.126 2.91Zm-1.83 1.707L8.02 12.893l4.088 4.088 8.277-8.277-4.088-4.088ZM9.242 19.068a1.25 1.25 0 0 1 0 1.768l-2.088 2.087a1.25 1.25 0 0 1-1.768-1.768l2.088-2.087a1.25 1.25 0 0 1 1.768 0Zm-3.75-.733a1.25 1.25 0 0 0-1.769-1.768l-2.087 2.088a1.25 1.25 0 1 0 1.768 1.768l2.087-2.087Z"/></svg>
