<svg width="18" height="15" fill="currentColor" xmlns="http://www.w3.org/2000/svg"><path fill-rule="evenodd" clip-rule="evenodd" d="M15.283 3.997h-2.314V2.454A2.314 2.314 0 0 0 10.655.14H2.942A2.314 2.314 0 0 0 .628 2.454v4.628a2.314 2.314 0 0 0 2.314 2.314h1.195l1.119 1.242v.278A2.314 2.314 0 0 0 7.57 13.23h2.738l1.165 1.319a1.157 1.157 0 0 0 1.735 0l1.165-1.32h.91a2.314 2.314 0 0 0 2.314-2.313V6.288a2.314 2.314 0 0 0-2.314-2.291ZM2.942 7.854a.771.771 0 0 1-.771-.772V2.454c0-.426.345-.771.771-.771h7.713c.426 0 .772.345.772.771v4.628a.771.771 0 0 1-.772.772h-3.14L6.175 9.396 4.832 7.854h-1.89Zm12.341 3.856a.771.771 0 0 0 .772-.771V6.326a.771.771 0 0 0-.772-.77H12.97v1.542a2.314 2.314 0 0 1-2.315 2.314H8.204L7.038 10.73c-.07.08-.15.15-.24.208 0 .426.346.771.772.771h3.433l1.342 1.605 1.342-1.605h1.596Z"/></svg>
