<svg width="18" height="16" fill="currentColor" xmlns="http://www.w3.org/2000/svg"><path fill-rule="evenodd" clip-rule="evenodd" d="M15.118.14H2.777A2.314 2.314 0 0 0 .463 2.454v7.714a2.314 2.314 0 0 0 2.314 2.314h3.085v1.542H4.32a.771.771 0 1 0 0 1.543h9.256a.771.771 0 0 0 0-1.543h-1.542v-1.542h3.085a2.314 2.314 0 0 0 2.314-2.314V2.454A2.314 2.314 0 0 0 15.118.14ZM10.49 14.024H7.405v-1.542h3.085v1.542Zm4.628-3.085a.771.771 0 0 0 .771-.771V2.454a.771.771 0 0 0-.771-.771H2.777a.771.771 0 0 0-.772.771v7.713c0 .427.346.772.772.772h12.341Z"/></svg>
