<svg width="18" height="18" fill="currentColor" xmlns="http://www.w3.org/2000/svg"><path fill-rule="evenodd" clip-rule="evenodd" d="M16.75 3.668h-1.095c.044-.12.075-.246.094-.373a2.452 2.452 0 0 0-4.022-2.24l-2.681 2.29-2.673-2.29a2.452 2.452 0 0 0-4.022 2.24c.019.127.05.252.094.373h-.628c-.562 0-1.018.456-1.018 1.018v3.055c0 .562.456 1.018 1.018 1.018h.679v5.94a2.545 2.545 0 0 0 2.545 2.545h8.485a2.545 2.545 0 0 0 2.545-2.546V8.76h.679c.562 0 1.018-.456 1.018-1.018V4.686c0-.562-.456-1.018-1.018-1.018Zm-3.92-1.323a.755.755 0 1 1 .492 1.323h-2.045l1.553-1.323ZM4.464 2.23a.755.755 0 0 0-.442.683c0 .417.338.755.755.755h2.045L5.27 2.345a.755.755 0 0 0-.805-.115Zm9.91 12.468c0 .469-.38.849-.849.849H5.041a.848.848 0 0 1-.849-.849V8.76h10.182v5.94ZM2.495 7.062H16.07V5.365H2.495v1.697Z"/></svg>
