<svg width="18" height="12" fill="currentColor" xmlns="http://www.w3.org/2000/svg"><path fill-rule="evenodd" clip-rule="evenodd" d="M15.284 3.736h-.771c-.166.002-.332.02-.494.054a5.4 5.4 0 0 0-9.811 0 2.545 2.545 0 0 0-.494-.054h-.771A2.314 2.314 0 0 0 .629 6.05v3.085a2.314 2.314 0 0 0 2.314 2.314h.771a2.314 2.314 0 0 0 2.314-2.314V6.05a2.314 2.314 0 0 0-.501-1.42 3.857 3.857 0 0 1 7.173 0c-.32.404-.497.904-.501 1.42v3.085a2.314 2.314 0 0 0 2.314 2.314h.771a2.314 2.314 0 0 0 2.314-2.314V6.05a2.314 2.314 0 0 0-2.314-2.314ZM4.486 9.135a.771.771 0 0 1-.772.771h-.771a.771.771 0 0 1-.771-.771V6.05c0-.426.345-.772.771-.772h.771c.426 0 .772.346.772.772v3.085Zm10.798.771a.771.771 0 0 0 .772-.771V6.05a.771.771 0 0 0-.772-.772h-.77a.771.771 0 0 0-.772.772v3.085c0 .426.345.771.771.771h.771Z"/></svg>
