<svg width="18" height="14" fill="currentColor" xmlns="http://www.w3.org/2000/svg"><path fill-rule="evenodd" clip-rule="evenodd" d="M15.456.967H3.115A2.314 2.314 0 0 0 .8 3.281v7.713a2.314 2.314 0 0 0 2.314 2.314h12.34a2.314 2.314 0 0 0 2.315-2.314V3.281A2.314 2.314 0 0 0 15.456.967ZM3.115 2.51h12.341c.426 0 .771.345.771.771v.771H2.344v-.77c0-.427.345-.772.77-.772Zm0 9.256h12.341a.771.771 0 0 0 .771-.772V5.595H2.344v5.4c0 .425.345.77.77.77Z" fill="#fff"/><path d="M3.886 8.68H6.97a.771.771 0 1 0 0-1.542H3.886a.771.771 0 1 0 0 1.542ZM9.285 9.452h-5.4a.771.771 0 0 0 0 1.542h5.4a.771.771 0 1 0 0-1.542Z"/></svg>
