<svg width="18" height="18" fill="currentColor" xmlns="http://www.w3.org/2000/svg"><path fill-rule="evenodd" clip-rule="evenodd" d="M16.191 1.324a3.66 3.66 0 0 0-5.174 0L8.053 4.288a.856.856 0 0 0-.127-.054l-3.4-1.133a.849.849 0 0 0-.868.205L.542 6.42a.849.849 0 0 0 .249 1.372l2.96 1.348c.028.202.12.397.276.552l3.795 3.795c.155.156.35.248.552.276l1.348 2.96a.849.849 0 0 0 1.372.249l3.115-3.116a.848.848 0 0 0 .205-.868l-1.133-3.4a.857.857 0 0 0-.054-.126l2.964-2.964a3.66 3.66 0 0 0 0-5.175ZM9.848 12.906a.852.852 0 0 0-.02-.043l2.066-2.067.745 2.232-1.88 1.88-.91-2.002ZM4.652 7.688 6.72 5.62l-2.233-.744-1.88 1.879 2.002.91a.863.863 0 0 1 .043.022Zm7.945-5.461a1.963 1.963 0 0 1 2.691 2.691l-2.691-2.691Zm-1.242 1.158L5.737 9.003l2.775 2.775L14.13 6.16l-2.775-2.775Zm-4.788 9.81a.849.849 0 0 1 0 1.2L5.15 15.81a.848.848 0 1 1-1.2-1.2l1.417-1.416a.848.848 0 0 1 1.2 0Zm-2.546-.498a.849.849 0 1 0-1.2-1.2l-1.417 1.417a.849.849 0 1 0 1.2 1.2l1.417-1.417Z"/></svg>
