<svg width="18" height="19" fill="currentColor" xmlns="http://www.w3.org/2000/svg"><path fill-rule="evenodd" clip-rule="evenodd" d="M3.973 14.609a27.657 27.657 0 0 0 3.91 3.072 2.266 2.266 0 0 0 2.54 0 28.788 28.788 0 0 0 3.692-3.112 11.14 11.14 0 0 0 3.071-4.886c.219-1.158.292-2.338.218-3.515 0-1.177-.137-2.233-.177-2.628a.967.967 0 0 0-1.097-.862c-.473.068-.95.11-1.427.129a6.192 6.192 0 0 1-1.725-.17 6.184 6.184 0 0 1-1.854-1.015C10.66 1.28 10.22.912 9.802.517a.967.967 0 0 0-1.33 0c-.416.388-.852.754-1.306 1.096a6.578 6.578 0 0 1-1.87 1.024 6.264 6.264 0 0 1-1.936.154c-.54-.02-1.077-.068-1.612-.146a.967.967 0 0 0-1.08.863A36.9 36.9 0 0 0 .49 6.152C.417 7.328.49 8.51.708 9.667a10.923 10.923 0 0 0 3.265 4.942ZM2.095 6.184c0-.71.072-1.37.12-1.862.307 0 .686.065 1.089.08a7.892 7.892 0 0 0 2.418-.217 8.062 8.062 0 0 0 2.419-1.274c.403-.298.758-.588 1.032-.806.274.234.629.532 1.032.806a7.804 7.804 0 0 0 2.418 1.274 7.82 7.82 0 0 0 2.193.185l.87-.056c.041.492.09 1.16.114 1.87a13.7 13.7 0 0 1-.178 3.088 9.73 9.73 0 0 1-2.644 4.128 26.602 26.602 0 0 1-3.483 2.918.629.629 0 0 1-.717 0 25.992 25.992 0 0 1-3.684-2.894A9.417 9.417 0 0 1 2.28 9.256a13.705 13.705 0 0 1-.185-3.072Z"/></svg>
