<svg width="14" height="12" fill="currentColor" xmlns="http://www.w3.org/2000/svg"><path fill-rule="evenodd" clip-rule="evenodd" d="M6.42 11.86c.939 0 1.672-.753 1.72-1.65.02-.389.053-.804.106-1.129.02-.119.084-.296.2-.522.114-.217.257-.445.403-.656a10.188 10.188 0 0 1 .44-.589l.932-.271c.218.163.49.26.784.26h1.305c.722 0 1.306-.582 1.306-1.301V1.446c0-.719-.584-1.302-1.306-1.302h-1.305c-.399 0-.756.178-.995.459A4.582 4.582 0 0 0 8.01.144h-4.96c-.973 0-1.798.711-1.939 1.67L.621 5.161a1.955 1.955 0 0 0 1.938 2.235h1.477v2.087a2.38 2.38 0 0 0 2.384 2.376ZM9.7 1.9l-.26-.127a3.273 3.273 0 0 0-1.428-.327h-4.96c-.325 0-.6.237-.647.557L1.913 5.35a.652.652 0 0 0 .646.745h2.13c.36 0 .653.291.653.65v2.738c0 .593.483 1.074 1.078 1.074a.43.43 0 0 0 .415-.415c.022-.404.058-.875.123-1.27.051-.316.186-.635.329-.91.146-.283.322-.559.486-.797a11.49 11.49 0 0 1 .627-.823l.012-.014.003-.004.001-.001.497.422-.496-.423a.653.653 0 0 1 .313-.201l.969-.282v-3.94Zm1.306 4.102h1.305V1.446h-1.305v4.556Z"/></svg>
