<svg width="14" height="13" fill="currentColor" xmlns="http://www.w3.org/2000/svg"><path fill-rule="evenodd" clip-rule="evenodd" d="M7.872.493c-.939 0-1.672.752-1.72 1.65-.02.388-.054.804-.106 1.128-.02.12-.084.297-.201.522a6.259 6.259 0 0 1-.402.656 10.195 10.195 0 0 1-.44.59l-.932.27a1.303 1.303 0 0 0-.784-.26H1.982c-.722 0-1.306.583-1.306 1.302v4.556c0 .719.584 1.301 1.306 1.301h1.305c.399 0 .756-.178.995-.458a4.582 4.582 0 0 0 1.999.458h4.96c.973 0 1.798-.71 1.939-1.67l.491-3.346a1.954 1.954 0 0 0-1.938-2.236h-1.477V2.87A2.38 2.38 0 0 0 7.872.493Zm-3.279 9.96.26.126a3.27 3.27 0 0 0 1.428.328h4.96a.652.652 0 0 0 .647-.557l.491-3.347a.651.651 0 0 0-.646-.745h-2.13a.652.652 0 0 1-.653-.65V2.87c0-.594-.483-1.075-1.078-1.075a.43.43 0 0 0-.415.416 12.49 12.49 0 0 1-.123 1.27c-.051.316-.186.635-.329.91a7.545 7.545 0 0 1-.486.796 11.49 11.49 0 0 1-.627.824l-.012.014-.003.003-.001.002-.497-.423.496.423a.653.653 0 0 1-.313.202l-.969.282v3.939ZM3.287 6.35H1.982v4.556h1.305V6.35Z"/></svg>
