<svg width="15" height="16" fill="currentColor" xmlns="http://www.w3.org/2000/svg"><path fill-rule="evenodd" clip-rule="evenodd" d="M7.209.792a7.159 7.159 0 1 0 0 14.318 7.159 7.159 0 0 0 0-14.318Zm0 13.017a5.857 5.857 0 1 1 0-11.715 5.857 5.857 0 0 1 0 11.715Z"/><path fill-rule="evenodd" clip-rule="evenodd" d="M7.28 9.487h-.144a2.662 2.662 0 0 0-2.492 1.718.65.65 0 1 0 1.204.495c.21-.54.722-.902 1.301-.918h.144c.58.014 1.093.377 1.301.918a.65.65 0 0 0 1.178-.495A2.662 2.662 0 0 0 7.28 9.487Z"/><path d="M4.931 7.3a.976.976 0 1 0 0-1.952.976.976 0 0 0 0 1.952ZM9.486 7.3a.976.976 0 1 0 0-1.952.976.976 0 0 0 0 1.952Z"/></svg>
