<svg width="15" height="15" fill="currentColor" xmlns="http://www.w3.org/2000/svg"><path fill-rule="evenodd" clip-rule="evenodd" d="M.05 7.226a7.159 7.159 0 1 1 14.318 0 7.159 7.159 0 0 1-14.318 0Zm1.302 0a5.857 5.857 0 1 0 11.714 0 5.857 5.857 0 0 0-11.714 0Z"/><path d="M9.389 8.808a.65.65 0 0 0-.82.338 1.432 1.432 0 0 1-1.302.918h-.169a1.432 1.432 0 0 1-1.302-.918.65.65 0 0 0-1.204.495 2.655 2.655 0 0 0 2.493 1.725h.143A2.655 2.655 0 0 0 9.721 9.64a.65.65 0 0 0-.332-.833ZM4.931 6.576a.976.976 0 1 0 0-1.953.976.976 0 0 0 0 1.953ZM9.486 6.576a.976.976 0 1 0 0-1.953.976.976 0 0 0 0 1.953Z"/></svg>
